<?xml version="1.0" encoding="UTF-8"?><svg id="Layer_1" xmlns="http://www.w3.org/2000/svg" viewBox="0 0 331.5 341.99"><defs><style>.cls-1{fill:#231f20;}</style></defs><path class="cls-1" d="m308.28,192.76c-9.1-21.7-32.64-37.66-55.94-40.95,25.82-.13,53.97-30.08,52.25-55.85-1.72-25.76-25.17-47.62-50.92-49.49-25.75-1.88-55.35,32.54-65.72,56.19-3.53-23.14-6.2-73.93-25.43-87.27-19.23-13.34-54.61-6.4-68.64,12.07-12.36,16.27-20.02,39.14-9.99,56.95,14.56,25.84,40.6,44.47,40.6,44.47,0,0-57.37-11.94-85.41,5.44-16.01,9.93-41.4,36.88-15.95,72.29,33.59,46.73,102.5-3.36,102.5-3.36-8.8,24.51-13.6,38.61-16.44,64.49-1.88,17.12,6.24,46.59,30.67,55.59,22.43,8.26,53.87-.42,66.91-20.46,13.04-20.04,11.03-66.18,3.37-88.06,10.95,25.67,39.11,43.43,58.62,42.79,19.51-.64,33.4-6.84,40.73-24.93,6.02-14.85,4.99-25.12-1.21-39.91Zm-93.59-19.73c-.75,4.38-3.38,8.16-6.08,11.01-2.88,3.05-6.37,5.49-10.11,7.4-16.64,8.5-23.75,7.46-34.26,5.57-4.35-.78-8.76-1.89-12.36-4.46-9.36-6.7-10.34-20.43-7.49-31.58,1.47-5.74,3.79-11.41,7.82-15.75,6.04-6.53,15.1-9.26,23.84-10.93,8.89-1.7,18.71-2.41,26.4,2.36,5.41,3.36,9.02,9.06,11.07,15.09,2.05,6.02,3.05,10.27,1.16,21.3Z"/></svg>